<svg width="16" height="19" viewBox="0 0 16 19" fill="none" xmlns="http://www.w3.org/2000/svg">
<path d="M5.66699 13.2969L6.05268 12.6536L5.87461 12.5469H5.66699V13.2969ZM5.66699 5.30208V6.05208H5.87461L6.05268 5.94531L5.66699 5.30208ZM12.3337 1.30469H13.0837C13.0837 1.03452 12.9384 0.785235 12.7033 0.652091C12.4682 0.518947 12.1797 0.522525 11.948 0.661457L12.3337 1.30469ZM12.3337 17.2943L11.948 17.9375C12.1797 18.0764 12.4682 18.08 12.7033 17.9469C12.9384 17.8137 13.0837 17.5644 13.0837 17.2943H12.3337ZM5.66699 12.5469H3.00033V14.0469H5.66699V12.5469ZM3.00033 12.5469C2.67759 12.5469 2.41699 12.2861 2.41699 11.9644H0.916992C0.916992 13.1164 1.85106 14.0469 3.00033 14.0469V12.5469ZM2.41699 11.9644V6.63454H0.916992V11.9644H2.41699ZM2.41699 6.63454C2.41699 6.31285 2.67759 6.05208 3.00033 6.05208V4.55208C1.85106 4.55208 0.916992 5.48253 0.916992 6.63454H2.41699ZM3.00033 6.05208H5.66699V4.55208H3.00033V6.05208ZM6.05268 5.94531L12.7193 1.94792L11.948 0.661457L5.28131 4.65885L6.05268 5.94531ZM11.5837 1.30469V17.2943H13.0837V1.30469H11.5837ZM12.7193 16.651L6.05268 12.6536L5.28131 13.9401L11.948 17.9375L12.7193 16.651ZM14.2503 7.30469V11.3047H15.7503V7.30469H14.2503Z" fill="#8996B8"/>
</svg>
